<svg version="1.2" xmlns="http://www.w3.org/2000/svg" viewBox="0 0 409 292" width="409" height="292">
	<title>background-svg</title>
	<style>
		.s0 { opacity: .5;mix-blend-mode: multiply;fill: #c69c6d } 
		.s1 { fill: #000000 } 
		.s2 { fill: #25435c } 
		.s3 { opacity: .5;mix-blend-mode: multiply;fill: #25435c } 
		.s4 { fill: #d13b3b } 
		.s5 { fill: #ffffff } 
		.s6 { mix-blend-mode: multiply;fill: #d13b3b } 
		.s7 { mix-blend-mode: multiply;fill: #c5e3eb } 
		.s8 { fill: #ff9a73 } 
		.s9 { fill: #e8faff } 
		.s10 { fill: #717b7f } 
		.s11 { fill: #eaeced } 
		.s12 { fill: #94a2a6 } 
		.s13 { opacity: .4;mix-blend-mode: multiply;fill: #94a2a6 } 
		.s14 { fill: #1a1a1a } 
		.s15 { fill: #4d4d4d } 
		.s16 { fill: #f15a24 } 
		.s17 { fill: #34444a } 
		.s18 { fill: #70929e } 
		.s19 { fill: #b1e7fa } 
		.s20 { fill: #fbb03b } 
		.s21 { fill: #f2885e } 
		.s22 { fill: #62798a } 
		.s23 { opacity: .5;mix-blend-mode: multiply;fill: #f28f85 } 
		.s24 { fill: #523b2a } 
		.s25 { fill: #534741 } 
		.s26 { fill: #a67c52 } 
		.s27 { fill: #39b54a } 
		.s28 { fill: #d9e021 } 
		.s29 { fill: #8cc63f } 
		.s30 { fill: #009245 } 
		.s31 { fill: #fcf374 } 
	</style>
	<g id="Layer 1">
	</g>
	<g id="Layer 2">
	</g>
	<g id="Layer 3">
		<path id="&lt;Path&gt;" class="s0" d="m317.5 292l-66.5-38.4-14.6-8.5-15.8-9.6c-8.7-5.4-9.4-17.8-1.3-24.1l18.7-14.6c5.6-4.3 13.2-5 19.5-1.9l35.5 17.8 34.7-19.9 81.1 46.9z"/>
		<path id="&lt;Path&gt;" class="s0" d="m204.3 255.8l-66 38.2-132.9-76.7 66.1-38.2 63.9 37c31-13.7 62.8 3 47.8 27.6z"/>
		<g id="&lt;Group&gt;">
			<g id="&lt;Group&gt;">
				<path id="&lt;Path&gt;" class="s1" d="m239.4 185.2h8.1q3.7 8.8 3.9 9.2c0.1 0.4 6.2 3.3 6.6 3.4q0.3 0.1 13.2 3.2c2.1 1.2 3.3 2.6 3.4 4.2-0.4 3.5-3.7 5.2-8.9 6.2-8.7 1.7-12.9-2.6-19.6-2.4-3.5 0.1-7.5 1.2-9.4-2.8-1.1-4.1-0.4-9.9 0.5-11.7z"/>
				<path id="&lt;Path&gt;" class="s2" d="m261.8 145.5q-0.4 3.2-0.9 6.3c-2.9 16.8-8.2 31.8-7.4 42.3-1.2 2.2-4.9 3.7-8.5 3.8-3.8 0.1-7.5-1.2-8.1-4.4-1.5-15.2 3.8-30.6 5.1-46.3l-0.8-4.1-8.9-47.3 25.7-4.2c4 15.2 4.3 34.8 3.8 53.9z"/>
				<path id="&lt;Path&gt;" class="s3" d="m261.8 145.5q-0.4 3.2-0.9 6.3c-3.6 6-12.2 14.5-15.9 19.7q-5.9 8.4 0 26.4c-3.8 0.1-7.5-1.2-8.1-4.4-1.5-15.2 3.8-30.6 5.1-46.3l-0.8-4.1z"/>
				<path id="&lt;Path&gt;" class="s1" d="m217.4 209.1l13.1 2.2v7.8l4.9 8.2c2.5 3.2 3.9 7.3 4 9.2-2.6 3.9-11.4 4.2-16.1 0.8-4-2.4-4.1-6.7-4.9-9.2-0.8-2.1-1.4-2.7-2-4.2-0.7-2.8-0.5-4 0.5-7.9z"/>
				<path id="&lt;Path&gt;" class="s2" d="m244.5 122.4c0.1 8.2-0.2 20.7-0.8 31.9-0.2 4.3-0.6 8.5-0.9 12.1q-0.2 0.7-0.4 1.4c-5 18.2-9.4 35.6-10.1 47.1-2 2.8-8.5 4.2-12.6 2.9-0.3-0.1-0.6-0.2-0.8-0.3q-0.2-0.1-0.3-0.1c-1.5-0.8-2.5-1.9-2.6-3.7-0.6-14.9 1.4-30 4.9-45.4l-1.1-18.9-2.1-33.5c-3-7.1-4.6-15.4-1.3-28l3.5 0.7 38.6 7.4c0.6 5.3-6 19.7-14 26.4z"/>
				<path id="&lt;Path&gt;" class="s3" d="m243.7 154.3c-0.2 4.3-0.6 8.5-0.9 12.1q-0.2 0.7-0.4 1.4c-2.6 2.9-7.1 7-14.7 10.8q-13.6 6.8-8.8 38.9-0.2-0.1-0.3-0.1c-1.5-0.8-2.5-1.9-2.6-3.7-0.6-14.9 1.4-30 4.9-45.4l-1.1-18.9z"/>
				<path id="&lt;Path&gt;" class="s4" d="m262.8 143q-5 13.3-15.7 16.9c-16 3.3-24.6 0.4-29.2-3.4 0.6-26.6-3-53.8 3.6-79.3l9.1 4.2 29.4 13.5c2.9 5.2 2.8 23 2.8 41.6q0 3.3 0 6.5z"/>
				<path id="&lt;Path&gt;" class="s5" d="m310.1 65.5q-2.8 4-5.6 7.9-10.9-5.3-21.3-11.8c-1.1-0.9-2.3-2-3.6-3.2q-0.2-0.2-0.4-0.4-0.1-0.1-0.2-0.2c-3.4-3.3-7.6-7.5-11.4-11.7l15.4-8 6.3 9.7q-0.1 0.2-0.1 0.4l3.8 5.9c4.4 1.8 11.2 6.8 17.1 11.4z"/>
				<path id="&lt;Path&gt;" class="s5" d="m284.7 54.2c-0.9 5.1-2.7 9.6-4.8 13.4q-5.7 10.5-13.9 15.8l-3.2 6.1-2.8 5.4-1.4 2.7c-11.7 4.8-20.3 5.4-26.5 4q-12.7-2.8-15.7-13.7 2.6-25.6 19.6-33.4 6.5-10.9 18.8-17.1 39.1-17.1 29.9 16.8z"/>
				<path id="&lt;Path&gt;" class="s6" d="m262.8 136.5c-6.5 3.4-18.9-13.4-21.3-16.6-5.3-7.3-8-13.6-9.4-18.3 6.2 1.4 14.8 0.8 26.5-4l1.4-2.7c2.9 5.2 2.8 23 2.8 41.6z"/>
				<path id="&lt;Path&gt;" class="s7" d="m279.9 67.6q-5.7 10.5-13.9 15.8l-3.2 6.1-2.8 5.4-1.4 2.7c-11.7 4.8-20.3 5.4-26.5 4q-1.8-6.1-1.4-9.7-1.2-5.8-0.1-10.5c0.4-2 1.3-3.8 2.8-4.9l16.7-4.8c1.1 6.7 20.2-4.9 25.3-7.8 1.6-0.9 4.3 0.4 4.5 3.7z"/>
				<path id="&lt;Path&gt;" class="s8" d="m285 60.7l-11.3 5.3c-2.7 1.3-6.1 0.1-7.3-2.7q-0.9-1.9-1.5-5.4-1.4-9.2 3.5-10.2l8.6-1z"/>
				<g id="&lt;Group&gt;">
					<path id="&lt;Path&gt;" class="s8" d="m294.8 65.6l-0.5 2.5c-0.1 1.4-1.2 1.9-2.2 1.6l-0.8-0.3q-4.2 2.9-7.7 2.1c-3.6-0.8-9.8-6.4-9.1-13q-6-18.4 10.5-21.8c4.7-1 14.4 2.7 16.5 11.5 1.4 5.4 3.1 11.6-6.7 17.4z"/>
					<path id="&lt;Path&gt;" class="s1" d="m299.2 62.3q-7.6 0.6-10.2-4.1c-3.3 3.8-5.1 1.6-8.7 2.2q-2.5-1-2.5-0.9c-2.2 1.1-4.7-0.2-5.3-2.5-1.9-7 0.8-15.8 8.8-19.5 7.6-3.7 12.5-0.4 15.5 2.1 7.5 6.1 10 14.4 2.4 22.7z"/>
				</g>
				<path id="&lt;Path&gt;" class="s8" d="m277.4 62.6c-0.9 0.1-1.9-0.2-2.4-1-0.3-0.5-0.4-1.3-0.3-1.9 0.3-1.3 1.2-2.5 2.4-2.9 1.3-0.4 2.8 0.3 3.3 1.5 0.7 2.1-1 4.1-3 4.3z"/>
				<path id="&lt;Path&gt;" class="s5" d="m305.6 52.7c-2.1 5.3-6.1 9.6-6.9 10.4q-0.1 0.1-0.1 0.2c-13 3.6-26.2-17.2-22.8-21.6 1.1-1.6 3.5-4.2 6.3-5.9q1.5-1 3-1.5c0.9-0.3 1.9-0.6 2.8-0.6 1.8 0.2 3.8 0.9 5.7 1.8 7.1 3.6 13.4 11.5 12.3 16.4q-0.1 0.3-0.2 0.6 0 0.1-0.1 0.2z"/>
				<path id="&lt;Path&gt;" class="s9" d="m301.8 52.7c-8.6-1.4-13.9-10.3-15.6-13.2-1.7-2.9-1.7-4.4-1.1-5.2 0.9-0.3 1.9-0.5 2.8-0.5 8.8 0.7 19.4 11.9 18 18.1-0.7 0.8-2 1.2-4.1 0.8z"/>
				<path id="&lt;Path&gt;" class="s7" d="m305.6 52.7c-2.1 5.3-6.1 9.6-6.9 10.4q-0.7-0.2-1.4-0.6c-1.8-1-3.2-2.5-4.5-4.1-3.4-4.4-6.1-9.4-8.6-14.4-1.3-2.3-2.6-5.5-2.1-8.2q1.5-1 3-1.5c0.9-0.3 1.9-0.6 2.8-0.6 1.8 0.2 3.8 0.9 5.7 1.8 1.7 1.4 3.1 3 4.4 4.7 2.5 3 4.6 6.3 6.4 9.8q0.7 1.3 1.2 2.7z"/>
				<path id="&lt;Path&gt;" class="s5" d="m297.1 57.4c-2.8-2.2-4.9-5.2-6.9-8.2-1.4-2.2-2.8-4.5-4.5-6.5-1-1.2-2-2.3-2.4-3.9-1-4.6 1.6-9.4 6.6-9.9 2.7-0.4 5.6 1 7.2 3.3 0.3 0.4 0.5 0.8 0.9 1.2 0.6 0.6 1.4 0.8 2.2 1 2.6 0.8 5.2 2 7 4 1.8 2 2.8 4.9 2 7.5 1.8 1.8 2.9 4.1 3.2 6.6 0.2 1.7 0.1 3.4-0.7 4.8-1 1.6-2.7 2.5-4.5 2.9-3.6 0.8-7.3-0.6-10.1-2.8z"/>
			</g>
			<g id="&lt;Group&gt;">
				<path id="&lt;Path&gt;" class="s10" d="m395.9 135.8v102.9l-78.6 45.4v-102.9z"/>
				<path id="&lt;Path&gt;" class="s11" d="m395.9 135.8l-78.6 45.4-66.7-38.5 78.6-45.4z"/>
				<path id="&lt;Path&gt;" class="s12" d="m317.3 181.2v102.9l-66.7-38.5v-102.9z"/>
				<path id="&lt;Path&gt;" class="s13" d="m317.3 180.8l0.4 0.2 78.2-41.6v17.8l-78.2 45.2-0.4-0.3-66.7-38.5v-21.3z"/>
				<g id="&lt;Group&gt;">
					<g id="&lt;Group&gt;">
						<path id="&lt;Path&gt;" class="s10" d="m398.9 143.3l-77 44.5v-8l77-44.5z"/>
						<path id="&lt;Path&gt;" class="s11" d="m398.9 135.3l-77 44.5-77.3-44.7 77-44.4z"/>
						<path id="&lt;Path&gt;" class="s12" d="m321.9 187.8l-77.3-44.7v-8l77.3 44.7z"/>
					</g>
					<g id="&lt;Group&gt;">
						<path id="&lt;Path&gt;" class="s14" d="m297.5 126.9c6.6 3.8 6.6 10 0 13.8-6.6 3.9-17.4 3.9-24 0-6.6-3.8-6.6-10 0-13.8 6.6-3.9 17.4-3.9 24 0z"/>
						<path id="&lt;Path&gt;" class="s15" d="m293.3 129.3c4.4 2.5 4.4 6.5 0 9-4.3 2.5-11.3 2.5-15.6 0-4.4-2.5-4.4-6.5 0-9 4.3-2.5 11.3-2.5 15.6 0z"/>
						<path id="&lt;Path&gt;" class="s16" d="m291.1 130.6c3 1.8 3 4.6 0 6.4-3.1 1.8-8.1 1.8-11.2 0-3.1-1.8-3.1-4.6 0-6.4 3.1-1.8 8.1-1.8 11.2 0z"/>
					</g>
					<g id="&lt;Group&gt;">
						<path id="&lt;Path&gt;" class="s14" d="m334.6 107.4c6.6 3.9 6.6 10.1 0 13.9-6.6 3.8-17.3 3.8-24 0-6.6-3.8-6.6-10 0-13.9 6.7-3.8 17.4-3.8 24 0z"/>
						<path id="&lt;Path&gt;" class="s15" d="m330.5 109.9c4.3 2.4 4.3 6.5 0 9-4.4 2.5-11.4 2.5-15.7 0-4.3-2.5-4.3-6.6 0-9 4.3-2.5 11.3-2.5 15.7 0z"/>
						<path id="&lt;Path&gt;" class="s16" d="m328.2 111.2c3.1 1.7 3.1 4.6 0 6.4-3.1 1.8-8.1 1.8-11.2 0-3-1.8-3-4.7 0-6.4 3.1-1.8 8.1-1.8 11.2 0z"/>
					</g>
					<g id="&lt;Group&gt;">
						<path id="&lt;Path&gt;" class="s14" d="m333 147.9c6.6 3.9 6.6 10.1 0 13.9-6.6 3.8-17.3 3.8-24 0-6.6-3.8-6.6-10 0-13.9 6.7-3.8 17.4-3.8 24 0z"/>
						<path id="&lt;Path&gt;" class="s15" d="m328.9 150.4c4.3 2.5 4.3 6.5 0 9-4.4 2.5-11.4 2.5-15.7 0-4.3-2.5-4.3-6.5 0-9 4.3-2.5 11.3-2.5 15.7 0z"/>
						<path id="&lt;Path&gt;" class="s16" d="m326.6 151.7c3.1 1.7 3.1 4.6 0 6.4-3.1 1.8-8.1 1.8-11.2 0-3-1.8-3-4.7 0-6.4 3.1-1.8 8.1-1.8 11.2 0z"/>
					</g>
					<g id="&lt;Group&gt;">
						<path id="&lt;Path&gt;" class="s14" d="m370.2 128.5c6.6 3.8 6.6 10.1 0 13.9-6.7 3.8-17.4 3.8-24 0-6.7-3.8-6.7-10.1 0-13.9 6.6-3.8 17.3-3.8 24 0z"/>
						<path id="&lt;Path&gt;" class="s15" d="m366 130.9c4.3 2.5 4.3 6.6 0 9.1-4.3 2.5-11.4 2.5-15.7 0-4.3-2.5-4.3-6.6 0-9.1 4.3-2.5 11.4-2.5 15.7 0z"/>
						<path id="&lt;Path&gt;" class="s16" d="m363.7 132.2c3.1 1.8 3.1 4.7 0 6.5-3 1.7-8 1.7-11.1 0-3.1-1.8-3.1-4.7 0-6.5 3.1-1.7 8.1-1.7 11.1 0z"/>
					</g>
				</g>
			</g>
			<g id="&lt;Group&gt;">
				<path id="&lt;Path&gt;" class="s8" d="m329.9 88.4l-2.4 1.5-4.9-3.5-2.2-3-3.3-4.7-3.9-3.8 3.1-2.8 4.8 2.7 7.7 2.7 0.8 0.4v7.9l-2-0.8 2 1.6z"/>
				<g id="&lt;Group&gt;">
					<g id="&lt;Group&gt;">
						<path id="&lt;Path&gt;" class="s17" d="m305.8 115.5h1.4c0.2-2.2 1.7-4.4 4.6-6.1 6.3-3.7 16.5-3.7 22.8 0 2.9 1.7 4.4 3.8 4.6 6.1h1.5l-2.4 3.7c-0.8 1.2-2 2.3-3.7 3.3-6.3 3.6-16.5 3.6-22.8 0q-2.5-1.5-3.6-3.3-0.1 0-2.4-3.7z"/>
						<path id="&lt;Path&gt;" class="s18" d="m310 104.2c7.3-4.2 19.1-4.2 26.4 0 6.2 3.5 7.1 9 2.7 13.1q-1.1 1.1-2.7 2.1c-7.3 4.1-19.1 4.1-26.4 0q-1.6-1-2.7-2.1c-4.4-4.1-3.4-9.6 2.7-13.1z"/>
						<path id="&lt;Path&gt;" class="s19" d="m339.2 117.2c-0.8 0.8-1.8 1.5-2.9 2.2q-1.3 0.7-2.7 1.3-0.3 0.1-0.6 0.2c-4.2 1.5-9.2 1.9-13.8 1.3-3.4-0.4-6.5-1.3-9.2-2.8q-1.6-1-2.7-2.1c-0.8-2.8 0.7-5.8 4.5-7.9 6.3-3.7 16.5-3.7 22.8 0 3.7 2.1 5.2 5 4.6 7.8z"/>
					</g>
					<g id="&lt;Group&gt;">
						<g id="&lt;Group&gt;">
							<g id="&lt;Group&gt;">
								<path id="&lt;Path&gt;" class="s18" d="m297.5 119.5l10.7-0.9 1.6 0.9-12.3 1z"/>
							</g>
							<g id="&lt;Group&gt;">
								<path id="&lt;Path&gt;" class="s17" d="m297.5 120.5l12.3-1-0.3 1-12 1z"/>
							</g>
						</g>
					</g>
					<g id="&lt;Group&gt;">
						<path id="&lt;Path&gt;" class="s10" d="m284.1 128.2c-0.2-0.4 0-1 0.7-1.4l14.5-8.3c1-0.6 2.6-0.6 3.6 0 0.5 0.2 0.7 0.6 0.7 1q0 0 0 1.5c0 0.4-0.2 0.8-0.7 1.1l-14.5 8.4c-1 0.5-2.7 0.5-3.6 0-0.5-0.3-0.8-0.7-0.8-1.1v-1.5c0 0.1 0.1 0.2 0.1 0.3z"/>
						<g id="&lt;Group&gt;">
							<path id="&lt;Path&gt;" class="s11" d="m299.3 118.5c1-0.6 2.6-0.6 3.6 0 1 0.5 1 1.5 0 2l-14.5 8.4c-1 0.6-2.7 0.6-3.6 0-1-0.6-1-1.5 0-2.1z"/>
						</g>
					</g>
				</g>
				<path id="&lt;Path&gt;" class="s17" d="m332.8 73.8q-6.1 24.1-6.1 24.1c1.1 0.3 1.7 1.6 1.4 2.8l-2.7 9.9c-0.1 0.1-0.2 0.2-0.3 0.1-0.1 0-0.1-0.1-0.1-0.2l1.8-9.5c0.1-0.3 0-0.6-0.3-0.7-0.3-0.1-0.6 0.1-0.6 0.4l-2.6 9.2c-0.1 0.1-0.2 0.2-0.3 0.1-0.1 0-0.2-0.1-0.2-0.2l1.9-9.5c0.1-0.3-0.1-0.6-0.4-0.7-0.3-0.1-0.5 0.1-0.6 0.4l-2.6 9.2c0 0.1-0.1 0.2-0.2 0.2-0.1-0.1-0.2-0.2-0.2-0.3l2-10.1c0.3-1.2 1.4-1.9 2.5-1.6l4.8-24.5c0.3-1 1.1-1.7 1.9-1.4 0.8 0.2 1.2 1.3 0.9 2.3z"/>
				<path id="&lt;Path&gt;" class="s8" d="m333.5 83.6c0.6 0.9 0.4 1.7-0.3 2.6 0.1 1.1-0.4 1.8-1.4 2.2h-1.9c-1.1-1.9-1.9-2.9-3.6-3.1l-2.6 0.6-3.3-2.5-3.3-4.7-3.9-3.8 3.1-2.8 4.8 2.7 7.6 1.3 4.2 2.1c0.9 1 1.1 1.8 1 2.8 0.5 0.9 0.3 1.8-0.4 2.6z"/>
				<path id="&lt;Path&gt;" class="s5" d="m310.1 65.5q6 4.8 11 9.3l-4 3.9c-3.8-1.2-8.3-3.2-12.6-5.3q2.8-3.9 5.6-7.9z"/>
				<path id="&lt;Path&gt;" class="s8" d="m281.8 112.5q0.1 0 4.4 2l6.5 1.8c1.6 0.4 3 1.3 4 2.6l2.3 3 2 3.1c0.3 1.5-0.2 2.2-1.3 2.2-0.4 1.1-1.2 1.7-2.3 1.6q-1 1.4-2.8 1.1c-0.6 0.6-1.6 0.6-2.6 0.5l-2.6-1c-1.8-2 2 2.8-4.9-5.7q-0.2-0.2-0.4-0.5l-1.2-2.1-3.8-5.5z"/>
				<path id="&lt;Path&gt;" class="s5" d="m253.6 84l3.2 19.1q25.7 10.4 28.2 9.5 4.6 3.2-1.4 9.9c-3.7 0-26.1 0.3-35.1-6.7q-10.9-2.7-15.1-41.7c-0.4-9.4 20.4-11.5 20.2 9.9z"/>
				<path id="&lt;Path&gt;" class="s5" d="m339.2 117.2c-0.8 0.8-1.8 1.5-2.9 2.2q-1.3 0.7-2.7 1.3-0.4 0.1-0.6 0.2c-4.2 1.5-9.2 1.9-13.8 1.3-1.6-0.6-3.3-1.5-5.2-2.6-1.1-0.6-4.2-0.9-4.9-1.6-0.8-2.8-1-4.5 2.7-6.7 1.9-1.1 4.7-0.1 7.1-0.6 2.8-0.4 5.2-2.2 8-1.9 2.8 0.4 5.1 2.5 7.2 3.7 2.8 1.6 4.6 3 5.1 4.7z"/>
				<path id="&lt;Path&gt;" class="s20" d="m319.6 113.9c1.5 0.9 1.5 2.2 0 3.1-1.5 0.8-3.9 0.8-5.3 0-1.5-0.9-1.5-2.2 0-3.1 1.4-0.8 3.8-0.8 5.3 0z"/>
				<path id="&lt;Path&gt;" class="s20" d="m331.8 114.4c1.5 0.8 1.5 2.2 0 3.1-1.5 0.8-3.9 0.8-5.3 0-1.5-0.9-1.5-2.3 0-3.1 1.4-0.9 3.8-0.9 5.3 0z"/>
			</g>
		</g>
		<g id="&lt;Group&gt;">
			<g id="&lt;Group&gt;">
				<path id="&lt;Path&gt;" class="s5" d="m121.1 80.8l6.6-26.4q3.6-14.7 10.8-10.8l-1.8 32.1v0.2l-3.8 9.8c-2.3 5.1-5.4 10.6-9.2 16.4l-7.4-9.7c1.8-4.9 3.5-9.2 4.8-11.6z"/>
				<path id="&lt;Path&gt;" class="s7" d="m127.4 86.6q-3.2-2.4-2.6-6.5c1.2-7.5 4.9-8.5 8.4-17.9l3.5 13.7-3.8 9.8c-2.3 5.1-5.4 10.6-9.2 16.4z"/>
				<path id="&lt;Path&gt;" class="s21" d="m147.7 215.9c6-1.1 11.2-3.7 13.2-7.8-2.1-15.1-11.6-27.8-19.5-46.3l22.2 2.1c9.2 16.4 3.7 36.4 7.9 45.1 2.5 4 3.7 7.7 0.5 10.9l-8.6-0.8-9 4.5-9.2-1c-0.8-3.1-1.2-5.9 2.5-6.7z"/>
				<path id="&lt;Path&gt;" class="s2" d="m172.2 210.3c4.1 3.4 3.8 8.7 2.1 12.7-3.2 3.7-9.1 0.5-13.3 1.2-9.8 1.7-10.1 4-14.6 3.4-7.4-0.8-12-4.4-11.4-6.8 0.5-2 3.9-3.7 9.3-5.2l8.6-1.2c-1.4 0.6-3.2 1.1-5.2 1.5-2.8 1.5-2.1 3.4 0.2 5.8 2.6 1.5 6.2 0.6 10.8-1.3l10-3.6c2.7-1.4 4.1-3.4 3.5-6.5z"/>
				<path id="&lt;Path&gt;" class="s8" d="m172.3 249.7q-0.2 0.5-8.9 1.8l-2.1-6.9c4.7-3.8 5.4-8.6 8.2-15.9-0.3-18.3-9.6-37.9-13.2-51.9-4.1-18.6-6.7-47.1-4.7-62.7-5.4-5.2 26.4-8.3 30.4 8.8-5.3 28.6-3.1 36.6-9.9 56.4 12.8 22.3 1.8 30.1 7.4 51.2 1.2 2.5 0.8 6 0.1 9.7q-7.1 9-7.3 9.5z"/>
				<path id="&lt;Path&gt;" class="s2" d="m179.5 230.5c2.8 2.8 2.2 7.7 1.2 11.3-1.6 2.9-3.8 4.5-6.6 8.6l-2.4 2.7c-4.7 3.3-12.6 3-15.1 0.8-1.5-3.3 0.9-6.2 6.8-11.1-2.5 4-0.3 6.2 5 6.1 2.6-0.2 4.6-3.4 7.8-7.7 2.9-4.6 4.9-7.3 3.3-10.7z"/>
				<path id="&lt;Path&gt;" class="s22" d="m146.5 96.5l31 5.9q1.2 1.3 2 2.8c5 8.2 4.3 19.1 1.8 31.1l-6.2 40.3c-5.8 1.7-11.2 2.6-16 2.5-3.9 0-7.3-0.6-10.4-2-5.9-2.5-10.3-7.6-12.8-15.8-1.7-27.5 1.4-58.8 10.6-64.8z"/>
				<path id="&lt;Path&gt;" class="s2" d="m142.7 111.1l36.8-5.9c5 8.2 4.3 19.1 1.8 31.1l-6.2 40.3c-5.8 1.7-11.2 2.6-16 2.5l-10.4-2c28.5-20.2-1.9-39.8-6-66z"/>
				<path id="&lt;Path&gt;" class="s5" d="m129.7 71.9l0.1-0.2q0.5-1.2 1.2-2.4c0.2-0.4 0.4-0.8 0.6-1.3q1-2 1.5-4.1c0.5-2.3 0.6-4.6 0.4-7-1-8.1 0.2-15.4 9.2-17.9q33.5 10.1 37 25.3c1.4 6.1 0.2 11.4-0.9 16.2-1 4.4-2 8.2-0.8 11.7q2.6 7.8 5.2 18.7c-2.2 1.5-4.5 2.7-6.6 3.7-20.5 10-32.8-0.7-38-11.4 1.6-4.8 2.2-9.3 0.2-14.4-10.7 0.4-12.9-8.1-9.1-16.9z"/>
				<path id="&lt;Path&gt;" class="s7" d="m150.3 96.3c11.5-1.7 8.6-27.9 18.6-30 3.7 0.1 7.1 2.1 8.7 10.7-1 4.4-0.8 11.7 0.3 15.2q2.7 7.8 5.3 18.7c-24.5 15.9-38.9 4.1-44.6-7.7 1.6-4.8 2.2-9.3 0.2-14.3q2.4 7.9 11.5 7.4z"/>
				<path id="&lt;Path&gt;" class="s1" d="m140.3 34.4l-6.5 16.2q-17.6-12.4 5.1-26z"/>
				<path id="&lt;Path&gt;" class="s4" d="m138.9 89.2q-0.1-0.2-0.1-0.4c-10.7 0.4-12.9-8.1-9.1-16.9l0.1-0.2q1.8-3.6 1.8-3.7l0.3-0.7c3-9.5 7.4-18.5 14.1-26.6l2.7 1.1c-5.2 3.9-12 18.7-13.3 27 4.2 3.4 10.4 5.5 17.5 6.9 1.8-8.2 8.6-21.7 13.5-27.1l2.6 2c-7.7 7.5-14 24.9-10.7 35.8q0.1 0.3 0.2 0.6c2.2 6 14.2 22.4 17.4 26.6 0.4 0.6 5.6-1.8 6.3-2v0.1l0.5 2.1-6.3 4-4.3 61.5c-5.2 1.2-10.9 1.7-16.3 1.4-9.8-0.5-18.5-3.7-20.4-9.8-2.3-18.6-0.5-42.1 3.2-67.7 1.5-4.6 2.1-8.9 0.4-13.7q0-0.2-0.1-0.3z"/>
				<path id="&lt;Path&gt;" class="s6" d="m138.6 103.2c1.5-4.6 2.1-8.9 0.4-13.7 0.9 1.9 3.8 7.2 11.3 6.8 4.2-0.6 6.5-4.5 8.2-9.3 2.2 6 14.2 22.4 17.4 26.6 0.4 0.6 5.6-1.8 6.2-2q0.1 0 0.1 0.1l0.5 2.1-6.3 4-4.3 61.5c-5.2 1.2-10.9 1.7-16.3 1.4 6.4-42.2-14.7-72.5-17.2-77.5z"/>
				<g id="&lt;Group&gt;">
					<path id="&lt;Path&gt;" class="s8" d="m150.7 39.5l10.4 6.8q-9 17.5-14.4 16.9-5.3-0.5-6.4-12.1z"/>
					<path id="&lt;Path&gt;" class="s23" d="m152.7 44.8c1.1 13.7-1.3 24.7-8 23.1q-5.4-1.3-5.6-15l0.7-7.4z"/>
					<path id="&lt;Path&gt;" class="s8" d="m156.9 31q2.9 9.4-3.2 15.1 1.3 1.4-3.1 8.2-2.7 4.2-8.7 5-6-1.3-8.7-11.1-4.7-7.1-2.8-11.7 2.4-12.4 14.3-14.4 9.2-0.4 12.2 8.9z"/>
					<path id="&lt;Path&gt;" class="s1" d="m143.1 21.7q16.6-5.6 13.8 9.3 12.4 9.7 0.1 25l-3.3-9.9-1-1.5q-3.6 0.2-4.1-3.5-6.3 6.4-18.6 0.6c-4.2-5.2 1.6-16.2 13.1-20z"/>
					<path id="&lt;Path&gt;" class="s8" d="m155.4 41.2c0.9 0.3 1.5 1.3 1.6 2.2 0.1 1-0.2 2-0.5 2.9-0.2 0.6-0.4 1.2-0.8 1.6-0.4 0.5-1 0.8-1.5 0.6-1.3-0.3-2.3-2.9-2.2-4.1 0.2-1.6 1.4-3.8 3.4-3.2z"/>
				</g>
				<g id="&lt;Group&gt;">
					<path id="&lt;Path&gt;" class="s5" d="m155.9 15.4l2.3 12.4c0 1.8-1.3 3.7-3.4 5.4-6 4.7-19 6.2-25.6 0.5l-0.4-4.9-0.9-7.5z"/>
					<path id="&lt;Path&gt;" class="s7" d="m155.9 15.4l2.3 12.4c0 1.8-1.3 3.7-3.4 5.4-3-0.1-6.1-0.4-9.4-1-5.2 3.3-13.6 0.9-16.6-3.4l-0.9-7.5z"/>
					<path id="&lt;Path&gt;" class="s5" d="m167.2 18c8.7 8.9-12.6 17.9-21.8 10.2-7 4.3-19.4 0-17.5-6.8-8.6-9.3 9.1-18.7 19-12.8 9-5.4 24.4 2 20.3 9.4z"/>
				</g>
			</g>
			<g id="&lt;Group&gt;">
				<g id="&lt;Group&gt;">
					<path id="&lt;Path&gt;" class="s10" d="m76.5 186.4l-5 2.9v-78.2l5-2.8z"/>
					<path id="&lt;Path&gt;" class="s11" d="m76.5 108.3l-5 2.8-5-2.8 5-2.9z"/>
					<path id="&lt;Path&gt;" class="s15" d="m71.5 189.3l-5-2.9v-78.1l5 2.8z"/>
				</g>
				<g id="&lt;Group&gt;">
					<path id="&lt;Path&gt;" class="s10" d="m21.5 218.2l-5 2.9v-78.2l5-2.9z"/>
					<path id="&lt;Path&gt;" class="s11" d="m21.5 140l-5 2.9-5-2.9 5-2.9z"/>
					<path id="&lt;Path&gt;" class="s15" d="m16.5 221.1l-5-2.9v-78.2l5 2.9z"/>
				</g>
				<g id="&lt;Group&gt;">
					<path id="&lt;Path&gt;" class="s10" d="m143.2 288.5l-4.9 2.8v-78.1l4.9-2.9z"/>
					<path id="&lt;Path&gt;" class="s11" d="m143.2 210.3l-4.9 2.9-5-2.9 5-2.9z"/>
					<path id="&lt;Path&gt;" class="s15" d="m138.3 291.3l-5-2.8v-78.2l5 2.9z"/>
				</g>
				<g id="&lt;Group&gt;">
					<path id="&lt;Path&gt;" class="s10" d="m198.2 256.7l-5 2.9v-78.2l5-2.9z"/>
					<path id="&lt;Path&gt;" class="s11" d="m198.2 178.5l-5 2.9-5-2.9 5-2.8z"/>
					<path id="&lt;Path&gt;" class="s15" d="m193.2 259.6l-5-2.9v-78.2l5 2.9z"/>
				</g>
				<g id="&lt;Group&gt;">
					<path id="&lt;Path&gt;" class="s10" d="m198.2 178.5l-59.9 34.7v-17.4l59.9-34.6z"/>
					<path id="&lt;Path&gt;" class="s24" d="m138.3 213.2l-126.8-73.2v-17.3l126.8 73.1z"/>
				</g>
				<path id="&lt;Path&gt;" class="s15" d="m198.2 161.2v17.3l-60 34.7-126.7-73.2v-17.3l126.7 73.1z"/>
				<g id="&lt;Group&gt;">
					<path id="&lt;Path&gt;" class="s10" d="m204.3 163.1l-66 38.2v-3.9l66-38.1z"/>
					<path id="&lt;Path&gt;" class="s11" d="m204.3 159.3l-66 38.1-132.9-76.7 66.1-38.1z"/>
					<path id="&lt;Path&gt;" class="s10" d="m138.3 201.3l-132.9-76.7v-3.9l132.9 76.7z"/>
				</g>
			</g>
			<path id="&lt;Path&gt;" class="s18" d="m124.6 175.4c-0.9-0.5-0.8-1.4 0.4-2.1q32.8-18 32.8-18.1c-1.3-0.7-1.3-1.9 0-2.6l11-5.9c0.2-0.1 0.4-0.1 0.5 0q0.2 0.2 0 0.3l-9.5 5.9c-0.3 0.2-0.3 0.5 0 0.7 0.4 0.2 0.9 0.2 1.2 0l10.4-5.5c0.1 0 0.3 0 0.5 0.1 0.1 0 0.1 0.2 0 0.2l-9.5 6c-0.3 0.2-0.3 0.5 0 0.7 0.3 0.2 0.9 0.2 1.2 0l10.3-5.5c0.2-0.1 0.4-0.1 0.5 0q0.2 0.1 0 0.3l-10.2 6.4c-1.3 0.7-3.3 0.7-4.7 0l-31.3 18.9c-1 0.7-2.7 0.8-3.6 0.2z"/>
			<g id="&lt;Group&gt;">
				<path id="&lt;Path&gt;" class="s25" d="m156.3 145l-27.7 16v-1.6l27.7-16z"/>
				<path id="&lt;Path&gt;" class="s26" d="m156.3 143.4l-27.7 16-55.6-32.1 27.7-16z"/>
				<path id="&lt;Path&gt;" class="s25" d="m128.6 161l-55.6-32.1v-1.6l55.6 32.1z"/>
			</g>
			<g id="&lt;Group&gt;">
				<g id="&lt;Group&gt;">
					<path id="&lt;Path&gt;" class="s27" d="m116.3 139.2l-3.5-1.4-6.7-3.8-7.5-2.6-8.2-9.6 3.4 0.5 1.6-1.5 5.1 0.5 3.9 3 5.1 1.3 2 2.8 4.2 2.7 3.7 1.7 4.4 3.5z"/>
					<path id="&lt;Path&gt;" class="s28" d="m123.8 138.2l-5 2-3.1 2-1.8-0.6 0.7-5.3 1.7 1.5 2.5-1.5 1.7-2.1 3.3 2.1z"/>
					<path id="&lt;Path&gt;" class="s29" d="m113.9 141.6l-4.2-3.8-5.5-2.7-5.6-3.7-5.7-3.9-2.5-5.7 5 3.8 7.1 3.7 4.2 3.5 7.9 3.5z"/>
					<path id="&lt;Path&gt;" class="s30" d="m116.3 137.8l-2.4-3.6-3.9-1.4-4.6-3.3-7.8-3.9-3.8-3.3 1.6-1.5 2.5 2.4 4.9 1.8 2.9 2 3.2 3 5 2.3 4.9 4z"/>
				</g>
				<g id="&lt;Group&gt;">
					<g id="&lt;Group&gt;">
						<g id="&lt;Group&gt;">
							<path id="&lt;Path&gt;" class="s1" d="m139.7 132.2l-0.9-0.5q-0.3-0.1-0.3-0.7c0-0.7 0.5-1.6 1.1-2l13.1-7.5q0.5-0.3 0.8-0.1 0.9 0.5 0.9 0.5 0.3 0.2 0.3 0.7c0 0.8-0.5 1.6-1.1 2l-13.1 7.5c-0.4 0.3-0.8 0.2-1-0.1q0.1 0.2 0.2 0.2z"/>
							<g id="&lt;Group&gt;">
								<path id="&lt;Path&gt;" class="s11" d="m140.5 132.1c-0.6 0.4-1.2 0.1-1.2-0.6 0-0.7 0.6-1.6 1.2-2l13.1-7.5c0.6-0.4 1.1-0.1 1.1 0.6 0 0.8-0.5 1.6-1.1 2z"/>
							</g>
						</g>
						<path id="&lt;Path&gt;" class="s19" d="m152.1 123.2q0 0.2-11.3 7l-0.6 0.4v4.5c-2.1 1.2-20.6 12.6-23.9 8.8l0.7-0.4 0.6-0.3 22.6-13.1z"/>
						<path id="&lt;Path&gt;" class="s18" d="m152.1 123.2q0 0.2-11.3 7l-0.6 0.4v3.5c-2 1.2-18.5 11.4-23.2 9.4l0.6-0.3 22.6-13.1z"/>
						<g id="&lt;Group&gt;">
							<path id="&lt;Path&gt;" class="s1" d="m140.5 132.7l-0.8-0.5q-0.3-0.2-0.4-0.7c0-0.7 0.6-1.6 1.2-2l13.1-7.5q0.5-0.3 0.8-0.1 0.8 0.5 0.8 0.5 0.3 0.2 0.3 0.7c0 0.7-0.5 1.6-1.1 2l-13.1 7.5c-0.4 0.3-0.8 0.2-1-0.1q0.1 0.1 0.2 0.2z"/>
							<g id="&lt;Group&gt;">
								<path id="&lt;Path&gt;" class="s15" d="m141.3 132.6c-0.6 0.4-1.1 0.1-1.1-0.6 0-0.7 0.5-1.6 1.1-2l13.1-7.5c0.6-0.4 1.1-0.1 1.1 0.6 0 0.7-0.5 1.6-1.1 2z"/>
							</g>
						</g>
					</g>
					<path id="&lt;Path&gt;" class="s8" d="m157.4 113.1l-2.5 6.2v6.3l-0.9 2.2c-0.2 0.5-0.6 0.8-1 1.1l-0.8 0.5-0.4 0.6c-0.5 0.6-1.2 1-2 1q-0.1 0-0.8 0.7c-0.4 0.4-1.1 0.7-1.7 0.7h-0.3l-0.3 0.2c-0.7 0.7-1.7 0.9-2.6 0.5l-1.7-1.1 3-1.8c1.3-1.2 0.4-3.9-1.7-3.5l-2.7 1.5 0.9-5.9 4.4-5.7 3.6-3.1 4.1-2.2z"/>
					<path id="&lt;Path&gt;" class="s5" d="m176.5 59.3c4.7 9.3 5.9 20.3 8.8 29.5 1.9 6 0.7 9.1-5.6 14-7 5.6-15.9 10.5-24.8 16.5 0-4-2.3-6.3-5-5.8l22.5-22.1-6-14.1c-6.9-11.5 5.4-27.5 10.1-18z"/>
					<path id="&lt;Path&gt;" class="s8" d="m114.5 113.8l-0.4 2.4 0.2 3.9q0 0.4-0.1 0.6l-1.2 2.7q-0.1 0.1-0.6 1.7-0.1 0.2-0.3 0.4l-1.5 1.6c-0.8 0.8-1.6-0.2-1.1-1.5l0.9-1.5q0.2-0.4 0.1-0.8v-0.6c0-0.7-0.5-1.3-1.2-1.3q-0.9-0.1-1.8 0.4c-0.3 0.1-0.5 0.4-0.6 0.7-0.2 0.8-0.6 2-0.6 2.1q-0.1 0.1-0.6 2.4c-0.2 2-1.8 1.8-1.7 0.2l0.4-2.9 0.2-2.2-1.7 2.6q-0.1 0.2-0.1 0.3l-0.9 2.2c-0.5 1.4-1.8 1.3-1.6 0l0.6-2.1q0-0.1 0.8-2.2l-1.6 1.8q-0.2 0.2-0.3 0.5l-0.4 1.6c-0.2 0.5-0.6 1-1.1 1.1-0.6 0-0.8-0.6-0.6-1.1-0.3-0.2-0.2-0.8-0.1-1.2l1.4-2.6q0.1-0.2 0.2-0.3l4.6-4.8q0-0.1 0.1-0.2l3.7-2.9c0.1-0.1 1.6-3.8 1.7-3.9l0.3 1.3c1.8-1.8 5.8-0.3 4.9 1.6z"/>
				</g>
				<path id="&lt;Path&gt;" class="s5" d="m107.6 114.8c1.5-3.1 5.2-13.6 8.7-22.5l7.5 9.8c-2.9 4.5-6.2 9.2-9.7 14.1-0.5-1.9-4.5-4-6.5-1.4z"/>
				<g id="&lt;Group&gt;">
					<path id="&lt;Path&gt;" class="s30" d="m129.7 142.3l-2.1 1.4-1.1-1.4 0.5-1.3 0.9-0.7 1-0.6 0.8 0.3z"/>
					<path id="&lt;Path&gt;" class="s28" d="m129.4 143.3l-1.8 0.4v-1.5l1-1.8 1.1-0.4q1.5 1.5 1.5 1.7z"/>
				</g>
				<g id="&lt;Group&gt;">
					<path id="&lt;Path&gt;" class="s30" d="m124.1 146.4l-0.6-0.4q-0.6-0.6-0.7-0.6-0.1-0.1 0.3-1.1l0.8-0.4 1.4-0.4 0.6 0.6z"/>
					<path id="&lt;Path&gt;" class="s28" d="m124.1 146.4l-0.6-0.4 0.9-1.6 1.5-0.3 1.2 1.2z"/>
				</g>
				<g id="&lt;Group&gt;">
					<path id="&lt;Path&gt;" class="s30" d="m128.7 148.9l-2.1 1.9-1-1.9 0.6-1.1q1.4-0.1 1.5 0 0.1 0 0.9-0.8l1 0.2 0.9 1.4z"/>
					<path id="&lt;Path&gt;" class="s28" d="m126.6 150.8l-0.1-2.2h1.4l1.4-1 1.2 1z"/>
				</g>
				<g id="&lt;Group&gt;">
					<path id="&lt;Path&gt;" class="s30" d="m121.5 150.1l-1.2-0.9 0.3-1.1 0.6-0.8 1.3-0.4 0.7 0.3 0.6 1z"/>
					<path id="&lt;Path&gt;" class="s28" d="m121.5 150.1v-1.9l1.2-0.9 1.1 0.9z"/>
				</g>
				<g id="&lt;Group&gt;">
					<path id="&lt;Path&gt;" class="s30" d="m130.3 145.5l-1.4 1.1-0.8-1.3 0.5-0.9 1.4-0.9 1.2 0.7 0.4 1.1z"/>
					<path id="&lt;Path&gt;" class="s28" d="m131.6 145.3l-1.4 0.6-1.3 0.7 0.4-1.7 1-0.9 0.8 0.5z"/>
				</g>
			</g>
			<g id="&lt;Group&gt;">
				<g id="&lt;Group&gt;">
					<path id="&lt;Path&gt;" class="s17" d="m46.9 100.5h34.2l-1.1 8.8c-0.2 2.2-1.7 4.4-4.7 6.1-6.2 3.6-16.3 3.6-22.6 0q-4.6-2.7-4.6-6.1z"/>
					<path id="&lt;Path&gt;" class="s18" d="m51.9 93.1c6.7-3.8 17.5-3.8 24.2 0 5.2 3 6.4 7.4 3.5 11.1-0.8 1-2 2-3.5 2.9q-0.1 0.1-0.2 0.1c-6.6 3.7-17.1 3.7-23.7 0q-0.2 0-0.3-0.1c-1.5-0.9-2.6-1.9-3.5-2.9-2.8-3.7-1.7-8.1 3.5-11.1z"/>
					<path id="&lt;Path&gt;" class="s19" d="m51.9 101.3c6.7-3.9 17.5-3.9 24.2 0 1.5 0.8 2.7 1.8 3.5 2.9-0.8 1-2 2-3.5 2.9q-0.1 0.1-0.2 0.1c-6.6 3.7-17.1 3.7-23.7 0q-0.2 0-0.3-0.1c-1.5-0.9-2.6-1.9-3.5-2.9 0.9-1.1 2-2.1 3.5-2.9z"/>
				</g>
				<g id="&lt;Group&gt;">
					<g id="&lt;Group&gt;">
						<g id="&lt;Group&gt;">
							<path id="&lt;Path&gt;" class="s18" d="m41.8 107.7l9.2-0.8 1.4 0.8-10.6 0.9z"/>
						</g>
						<g id="&lt;Group&gt;">
							<path id="&lt;Path&gt;" class="s17" d="m41.8 108.6l10.6-0.9-0.3 0.9-10.3 0.8z"/>
						</g>
					</g>
				</g>
				<g id="&lt;Group&gt;">
					<path id="&lt;Path&gt;" class="s10" d="m30.3 115.2c-0.2-0.4 0-0.9 0.6-1.2l12.4-7.2c0.9-0.5 2.3-0.5 3.1 0 0.5 0.2 0.7 0.5 0.7 0.9v1.3c0 0.3-0.2 0.6-0.7 0.9l-12.4 7.2c-0.9 0.5-2.3 0.5-3.1 0-0.5-0.3-0.7-0.6-0.7-0.9v-1.3c0 0.1 0.1 0.2 0.1 0.3z"/>
					<g id="&lt;Group&gt;">
						<path id="&lt;Path&gt;" class="s17" d="m43.3 106.8c0.9-0.5 2.3-0.5 3.1 0 0.9 0.5 0.9 1.3 0 1.8l-12.4 7.2c-0.9 0.5-2.3 0.5-3.1 0-0.9-0.5-0.9-1.3 0-1.8z"/>
					</g>
				</g>
				<g id="&lt;Group&gt;">
					<path id="&lt;Path&gt;" class="s18" d="m76.6 92.6c7 4 7 10.5 0 14.6-6.9 4-18.2 4-25.2 0-6.9-4.1-6.9-10.6 0-14.6 7-4 18.3-4 25.2 0z"/>
					<path id="&lt;Path&gt;" class="s19" d="m74.9 91.7c6 3.4 6 9 0 12.5-6 3.4-15.7 3.4-21.7 0-6-3.5-6-9.1 0-12.5 6-3.5 15.7-3.5 21.7 0z"/>
					<path id="&lt;Path&gt;" class="s18" d="m70.9 91.2c3.8 2.2 3.8 5.8 0 8-3.8 2.2-10 2.2-13.8 0-3.8-2.2-3.8-5.8 0-8 3.8-2.2 10-2.2 13.8 0z"/>
					<g id="&lt;Group&gt;">
						<path id="&lt;Path&gt;" class="s17" d="m66.3 89.6c1.2 0.7 1.2 1.9 0 2.6-1.3 0.7-3.3 0.7-4.5 0-1.3-0.7-1.3-1.9 0-2.6 1.2-0.7 3.2-0.7 4.5 0z"/>
						<path id="&lt;Path&gt;" class="s17" d="m65.3 92c0.7 0.4 0.7 1.1 0 1.5-0.7 0.4-1.8 0.4-2.5 0-0.7-0.4-0.7-1.1 0-1.5 0.7-0.4 1.8-0.4 2.5 0z"/>
					</g>
				</g>
			</g>
		</g>
		<g id="&lt;Group&gt;">
			<g id="&lt;Group&gt;">
				<g id="&lt;Group&gt;">
					<path id="&lt;Path&gt;" class="s17" d="m339.5 133.3c-0.1-0.2-0.4-0.5-0.7-0.7-1.9-1.1-4.9-1.1-6.7 0q-0.3 0.2-0.3 0.1l-2.2 1.4v-2.7l2.5-1.4c0.4-0.3 0.9-0.5 1.4-0.6 1.7-0.4 3.8-0.3 5.3 0.6 1.5 0.8 1.8 2.3 0.7 3.3z"/>
					<path id="&lt;Path&gt;" class="s18" d="m340.2 131.9v2.6c0 0.7-0.5 1.4-1.4 1.9l-2.6 1.5 0.1-2.6 2.5-1.5c0.9-0.5 1.4-1.2 1.4-1.9z"/>
				</g>
				<path id="&lt;Path&gt;" class="s17" d="m303.2 138.8h35.8l-1.2 15.7c-0.3 2.3-1.8 4.6-4.9 6.4-6.5 3.7-17.1 3.7-23.6 0q-4.8-2.8-4.9-6.4z"/>
				<path id="&lt;Path&gt;" class="s18" d="m333.7 131.1c7 4 7 10.6 0 14.6-6.9 4-18.3 4-25.2 0-7-4-7-10.6 0-14.6 6.9-4 18.3-4 25.2 0z"/>
				<path id="&lt;Path&gt;" class="s18" d="m338.2 141.4c-0.8 1.6-2.3 3-4.4 4.3q-0.2 0.1-0.3 0.2c-6.9 3.7-17.8 3.7-24.7 0-0.1-0.1-0.3-0.2-0.4-0.2-2.1-1.3-3.6-2.7-4.4-4.3-1.8-3.5-0.4-7.5 4.4-10.3 7-4 18.3-4 25.4 0 4.8 2.8 6.2 6.8 4.4 10.3z"/>
				<path id="&lt;Path&gt;" class="s19" d="m309.2 145.6c6.6-3.8 17.2-3.8 23.8 0 0.2 0.1 0.3 0.2 0.5 0.3-6.9 3.7-17.8 3.7-24.7 0q0.2-0.2 0.4-0.3z"/>
				<g id="&lt;Group&gt;">
					<path id="&lt;Path&gt;" class="s18" d="m311.6 149.5v2.7l-2.6 1.4c-1.8 1.1-4.8 1.1-6.6 0-0.9-0.5-1.4-1.2-1.4-1.9v-2.7c0 0.8 0.5 1.5 1.4 2 1.8 1.1 4.8 1 6.6 0z"/>
					<path id="&lt;Path&gt;" class="s17" d="m304.9 145.6v2.7l-2.5 1.5c-0.2 0-0.6 0.5-0.4 1q-0.3-0.3-0.6-0.6c-0.7-1-0.5-2.2 1-3.1z"/>
				</g>
			</g>
			<g id="&lt;Group&gt;">
				<path id="&lt;Path&gt;" class="s16" d="m338.2 141.4c-0.8 1.6-2.3 3-4.4 4.3q-0.2 0.1-0.3 0.2c-6.9 3.7-17.8 3.7-24.7 0-0.1-0.1-0.3-0.2-0.4-0.2-2.1-1.3-3.6-2.7-4.4-4.3 0.4-0.8 1.1-1.2 1.9-2 0.8-0.7 1.5-1.7 2.5-2.3 1.2-0.7 2.7-0.7 4-1.2 1.3-0.4 2.4-1.2 3.8-1.4 2.1-0.4 4-0.1 6.2 0 1.2 0.1 2.7-0.2 3.9 0 1.7 0.3 3 1 4.6 1.6 0.9 0.4 2 0.5 2.9 1q0.8 0.5 1.6 1.1 1.9 1.5 2.8 3.2z"/>
				<path id="&lt;Path&gt;" class="s20" d="m311.5 137.7q0.3 0 0.6 0 0.3 0 0.6 0.2c0.2 0.1 0.3 0.3 0.3 0.5 0 0.2-0.1 0.4-0.3 0.5-0.2 0.1-0.4 0.1-0.6 0.2-0.4 0-1.8 0.4-1.7-0.2 0.1-0.4 0.8-1 1.1-1.2z"/>
				<path id="&lt;Path&gt;" class="s20" d="m323.5 137.7l1.1 0.3v1l-2.3 0.2-0.6-1.2z"/>
				<path id="&lt;Path&gt;" class="s20" d="m330.4 143.7l-0.3 0.6-1.4-0.1 0.3-1.5z"/>
				<path id="&lt;Path&gt;" class="s20" d="m318.8 143.8l1 1.1-1 0.8-2-0.3 0.6-1.2z"/>
				<path id="&lt;Path&gt;" class="s27" d="m314.1 143.5l-0.4 0.3-2.6-0.5-0.9-1.1h1.1z"/>
				<path id="&lt;Path&gt;" class="s27" d="m319.1 137.6l-0.5 1.1-1.2 1.1-2.1-0.4 1.5-0.3z"/>
				<path id="&lt;Path&gt;" class="s27" d="m326.5 143.1l-0.8 0.7-1.5-0.1-2.8-1 2.5 0.2z"/>
				<path id="&lt;Path&gt;" class="s27" d="m330.6 138.1l0.2 0.7-2.4-0.3-1.6 0.6 1.7-1.4z"/>
				<path id="&lt;Path&gt;" class="s31" d="m334.3 141.5c-0.5 0.1-0.9 0.1-1.3 0.1-0.6 0.1-0.6-0.7-0.2-0.9 0.5-0.1 0.8-0.2 1.3-0.2 0.6 0 0.7 0.9 0.2 1z"/>
				<path id="&lt;Path&gt;" class="s31" d="m327.1 141.5c-1.8 0.8-0.8-2.3 0.2-1.1q0 0 0 0.1c0.3 0.3 0.3 0.8-0.2 1z"/>
				<path id="&lt;Path&gt;" class="s31" d="m326 136.5c-0.2 0.3-0.4 0.4-0.7 0.5-0.6 0.1-1.3-0.7-0.7-1.2q0.1-0.1 0.2-0.1c0.3-0.3 0.9-0.3 1.2 0.2q0.2 0.3 0 0.6z"/>
				<path id="&lt;Path&gt;" class="s31" d="m308.5 141q-0.4 0.2-0.8 0.3c-0.3 0.2-0.7-0.2-0.4-0.5 0.4-0.4 0.5-0.6 1.1-0.5 0.3 0.1 0.3 0.6 0.1 0.7z"/>
				<path id="&lt;Path&gt;" class="s31" d="m311.2 140.8c-0.2 0.1-0.3 0.2-0.5 0.2-0.2 0-0.4-0.2-0.3-0.5 0.1-0.2 0.4-0.4 0.7-0.2 0.1 0.1 0.2 0.3 0.1 0.5z"/>
				<path id="&lt;Path&gt;" class="s31" d="m317.5 142.1c-0.3 0.2-0.3 0.2-0.6 0.3-0.3 0-0.5-0.4-0.2-0.6 0.3-0.1 0.3-0.1 0.6-0.2 0.3 0 0.5 0.4 0.2 0.5z"/>
				<path id="&lt;Path&gt;" class="s31" d="m316.6 137.2c-0.4 0.1-0.7 0-1.1-0.1-0.3-0.1-0.3-0.6 0.1-0.6 0.3 0 0.6-0.1 0.9 0 0.4 0 0.6 0.7 0.1 0.7z"/>
				<path id="&lt;Path&gt;" class="s31" d="m323.7 146v0.2q-0.2 0.4-0.6 0.4-0.1 0-0.2 0.1c-0.7 0-0.9-1.1-0.2-1.3 0.2 0 0.3 0 0.5 0 0.3 0 0.7 0.3 0.5 0.6z"/>
				<path id="&lt;Path&gt;" class="s31" d="m314.3 145.1c-0.4 0-0.4 0.5 0 0.5 0.3 0 0.3-0.5 0-0.5z"/>
				<path id="&lt;Path&gt;" class="s31" d="m332.7 143.1q-0.2 0-0.4 0c-0.2 0-0.2-0.3 0-0.4q0.1 0 0.3-0.1c0.4-0.1 0.5 0.5 0.1 0.5z"/>
				<path id="&lt;Path&gt;" class="s31" d="m320.6 137.3q-0.1 0.1-0.2 0.1c-0.7 0.2-0.7-1.1 0-0.9l0.2 0.1c0.4 0.1 0.4 0.6 0 0.7z"/>
				<path id="&lt;Path&gt;" class="s31" d="m321.6 136.2c0 0 0 0.1 0 0.2q-0.1 0-0.1 0.1c-0.6 0.5-0.6-0.9 0-0.4q0 0 0.1 0.1z"/>
				<path id="&lt;Path&gt;" class="s31" d="m320.3 146.4c-0.2 0.1-0.2 0.1-0.4 0.1-0.3 0.1-0.3-0.4 0-0.4q0.1 0 0.2-0.1c0.2 0 0.4 0.2 0.2 0.4z"/>
				<path id="&lt;Path&gt;" class="s31" d="m325.6 146.2c-0.3 0.1-0.3 0.1-0.6 0.1-0.5 0-0.5-0.7 0-0.8q0.2 0 0.5 0c0.3 0.1 0.4 0.6 0.1 0.7z"/>
				<path id="&lt;Path&gt;" class="s31" d="m309.6 141.4q-0.1 0.1-0.2 0.2c-0.4 0.5-0.9-0.7-0.2-0.6q0.1 0 0.2 0c0.2 0 0.3 0.3 0.2 0.4z"/>
				<path id="&lt;Path&gt;" class="s31" d="m322.1 140.3c-0.1 0.1-0.1 0.1-0.3 0.1-0.2 0-0.2-0.3-0.1-0.3q0.2-0.1 0.3-0.1c0.2-0.1 0.3 0.2 0.1 0.3z"/>
				<path id="&lt;Path&gt;" class="s31" d="m323.6 140.9q-0.1 0-0.2 0c-0.3 0-0.3-0.4 0-0.4q0.1 0 0.2 0c0.3-0.1 0.3 0.4 0 0.4z"/>
			</g>
		</g>
	</g>
</svg>