<?xml version="1.0" encoding="utf-8"?>
<!-- Generator: Adobe Illustrator 26.2.1, SVG Export Plug-In . SVG Version: 6.00 Build 0)  -->
<svg version="1.1" id="Facebook" xmlns="http://www.w3.org/2000/svg" xmlns:xlink="http://www.w3.org/1999/xlink" x="0px" y="0px"
	 viewBox="0 0 144.1 144" style="enable-background:new 0 0 144.1 144;" xml:space="preserve">
<path d="M72,0C32.3,0,0,32.2,0,72c0,39.8,32.2,72,72,72s72-32.2,72-72C144,32.2,111.8,0,72,0z M96.6,46.1c0,0.7-0.6,1.2-1.2,1.2
	H77.9v9.4h17.5c0.7,0,1.2,0.6,1.2,1.2v17.5c0,0.7-0.6,1.2-1.2,1.2H79.1v38.5c0,0.7-0.6,1.2-1.2,1.2H61.3c-0.7,0-1.2-0.6-1.2-1.2
	V76.7H48.7c-0.7,0-1.2-0.6-1.2-1.2V58c0-0.7,0.6-1.2,1.2-1.2H60v-7.1c0-0.1,0-0.2,0-0.3c0-10.1,2.2-21.7,18.8-21.8c0,0,0.1,0,0.1,0
	h16.4c0.7,0,1.2,0.6,1.2,1.2L96.6,46.1L96.6,46.1z"/>
</svg>
